<svg width="18" height="20" viewBox="0 0 18 20" fill="none" xmlns="http://www.w3.org/2000/svg">
<path d="M0 20V16.3636H18V20H0ZM3.6 12.7273H4.86L11.88 5.65909L10.5975 4.36364L3.6 11.4545V12.7273ZM1.8 14.5455V10.6818L11.88 0.522727C12.045 0.356061 12.2362 0.227273 12.4538 0.136364C12.6713 0.0454546 12.9 0 13.14 0C13.38 0 13.6125 0.0454546 13.8375 0.136364C14.0625 0.227273 14.265 0.363636 14.445 0.545455L15.6825 1.81818C15.8625 1.98485 15.9938 2.18182 16.0763 2.40909C16.1588 2.63636 16.2 2.87121 16.2 3.11364C16.2 3.34091 16.1588 3.56439 16.0763 3.78409C15.9938 4.00379 15.8625 4.20455 15.6825 4.38636L5.625 14.5455H1.8Z" fill="black" fill-opacity="0.5"/>
</svg>
