<svg width="476" height="442" viewBox="0 0 476 442" fill="none" xmlns="http://www.w3.org/2000/svg">
<g filter="url(#filter0_d_233_150)">
<g clip-path="url(#clip0_233_150)">
<rect x="4" width="468" height="434" rx="50" fill="url(#paint0_linear_233_150)"/>
<ellipse cx="238.086" cy="216.859" rx="190.086" ry="193.859" fill="#2293E5"/>
<ellipse cx="237.581" cy="215.27" rx="152.17" ry="155.193" fill="#4FB3FA"/>
<ellipse cx="238.087" cy="216.859" rx="113.243" ry="115.468" fill="#A0D5FA"/>
<ellipse cx="238.088" cy="216.33" rx="79.8766" ry="81.0395" fill="#7ECAFF"/>
<ellipse cx="237.581" cy="215.8" rx="50.0493" ry="50.8483" fill="#93D3FF"/>
<ellipse cx="238.087" cy="216.859" rx="35.3884" ry="36.0176" fill="#138CE2"/>
<g filter="url(#filter1_d_233_150)">
<rect x="4" width="468" height="434" rx="50" fill="black" fill-opacity="0.01" shape-rendering="crispEdges"/>
<rect x="4.5" y="0.5" width="467" height="433" rx="49.5" stroke="#E8F0FE" shape-rendering="crispEdges"/>
<path d="M187.139 202.909V232H181.869V202.909H187.139ZM197.761 219.216V232H192.619V210.182H197.533V213.889H197.789C198.291 212.668 199.091 211.697 200.19 210.977C201.298 210.258 202.666 209.898 204.295 209.898C205.8 209.898 207.112 210.22 208.229 210.864C209.356 211.508 210.228 212.44 210.843 213.662C211.468 214.884 211.776 216.366 211.766 218.108V232H206.624V218.903C206.624 217.445 206.246 216.304 205.488 215.48C204.74 214.656 203.703 214.244 202.377 214.244C201.478 214.244 200.677 214.443 199.977 214.841C199.285 215.229 198.741 215.793 198.343 216.531C197.955 217.27 197.761 218.165 197.761 219.216ZM222.136 219.216V232H216.994V202.909H222.022V213.889H222.278C222.789 212.658 223.58 211.687 224.65 210.977C225.729 210.258 227.103 209.898 228.769 209.898C230.284 209.898 231.605 210.215 232.732 210.849C233.859 211.484 234.73 212.412 235.346 213.634C235.971 214.855 236.283 216.347 236.283 218.108V232H231.141V218.903C231.141 217.436 230.763 216.295 230.005 215.48C229.257 214.656 228.206 214.244 226.852 214.244C225.942 214.244 225.128 214.443 224.408 214.841C223.698 215.229 223.139 215.793 222.732 216.531C222.335 217.27 222.136 218.165 222.136 219.216ZM247.803 232.44C246.421 232.44 245.175 232.194 244.067 231.702C242.969 231.2 242.098 230.461 241.454 229.486C240.819 228.51 240.502 227.308 240.502 225.878C240.502 224.647 240.729 223.629 241.184 222.824C241.638 222.019 242.259 221.375 243.045 220.892C243.831 220.409 244.716 220.045 245.701 219.798C246.695 219.543 247.723 219.358 248.783 219.244C250.062 219.112 251.099 218.993 251.894 218.889C252.69 218.776 253.267 218.605 253.627 218.378C253.996 218.141 254.181 217.777 254.181 217.284V217.199C254.181 216.129 253.864 215.3 253.229 214.713C252.595 214.126 251.681 213.832 250.488 213.832C249.228 213.832 248.229 214.107 247.491 214.656C246.762 215.205 246.269 215.854 246.013 216.602L241.212 215.92C241.591 214.595 242.216 213.487 243.087 212.597C243.959 211.697 245.024 211.025 246.283 210.58C247.543 210.125 248.935 209.898 250.46 209.898C251.511 209.898 252.557 210.021 253.599 210.267C254.64 210.513 255.592 210.92 256.454 211.489C257.316 212.047 258.007 212.81 258.528 213.776C259.058 214.741 259.323 215.949 259.323 217.398V232H254.38V229.003H254.21C253.897 229.609 253.457 230.177 252.888 230.707C252.33 231.228 251.624 231.65 250.772 231.972C249.929 232.284 248.94 232.44 247.803 232.44ZM249.138 228.662C250.171 228.662 251.066 228.458 251.823 228.051C252.581 227.634 253.163 227.085 253.57 226.403C253.987 225.722 254.195 224.978 254.195 224.173V221.602C254.034 221.735 253.76 221.858 253.371 221.972C252.993 222.085 252.567 222.185 252.093 222.27C251.62 222.355 251.151 222.431 250.687 222.497C250.223 222.563 249.82 222.62 249.479 222.668C248.712 222.772 248.026 222.942 247.42 223.179C246.814 223.416 246.335 223.747 245.985 224.173C245.635 224.59 245.46 225.13 245.46 225.793C245.46 226.74 245.805 227.455 246.496 227.938C247.188 228.42 248.068 228.662 249.138 228.662ZM269.636 202.909V232H264.494V202.909H269.636ZM284.582 232.426C282.395 232.426 280.506 231.972 278.915 231.062C277.333 230.144 276.116 228.847 275.264 227.17C274.412 225.485 273.986 223.501 273.986 221.219C273.986 218.974 274.412 217.005 275.264 215.31C276.126 213.605 277.329 212.279 278.872 211.332C280.416 210.376 282.229 209.898 284.312 209.898C285.657 209.898 286.926 210.116 288.119 210.551C289.322 210.977 290.383 211.64 291.301 212.54C292.229 213.439 292.958 214.585 293.489 215.977C294.019 217.36 294.284 219.008 294.284 220.92V222.497H276.401V219.031H289.355C289.346 218.046 289.133 217.17 288.716 216.403C288.299 215.627 287.717 215.016 286.969 214.571C286.23 214.126 285.368 213.903 284.384 213.903C283.332 213.903 282.409 214.159 281.614 214.67C280.818 215.172 280.198 215.835 279.753 216.659C279.317 217.473 279.095 218.368 279.085 219.344V222.369C279.085 223.638 279.317 224.727 279.781 225.636C280.245 226.536 280.894 227.227 281.727 227.71C282.561 228.184 283.536 228.42 284.653 228.42C285.402 228.42 286.079 228.316 286.685 228.108C287.291 227.89 287.816 227.573 288.261 227.156C288.706 226.74 289.043 226.223 289.27 225.608L294.071 226.148C293.768 227.417 293.19 228.525 292.338 229.472C291.495 230.409 290.416 231.138 289.099 231.659C287.783 232.17 286.277 232.426 284.582 232.426Z" fill="black"/>
</g>
</g>
<rect x="4.5" y="0.5" width="467" height="433" rx="49.5" stroke="#E8F0FE"/>
</g>
<defs>
<filter id="filter0_d_233_150" x="0" y="0" width="476" height="442" filterUnits="userSpaceOnUse" color-interpolation-filters="sRGB">
<feFlood flood-opacity="0" result="BackgroundImageFix"/>
<feColorMatrix in="SourceAlpha" type="matrix" values="0 0 0 0 0 0 0 0 0 0 0 0 0 0 0 0 0 0 127 0" result="hardAlpha"/>
<feOffset dy="4"/>
<feGaussianBlur stdDeviation="2"/>
<feComposite in2="hardAlpha" operator="out"/>
<feColorMatrix type="matrix" values="0 0 0 0 0 0 0 0 0 0 0 0 0 0 0 0 0 0 0.25 0"/>
<feBlend mode="normal" in2="BackgroundImageFix" result="effect1_dropShadow_233_150"/>
<feBlend mode="normal" in="BackgroundImageFix" in2="effect1_dropShadow_233_150" result="BackgroundImageFix"/>
<feBlend mode="normal" in="SourceGraphic" in2="BackgroundImageFix" result="shape"/>
</filter>
<filter id="filter1_d_233_150" x="0" y="0" width="476" height="442" filterUnits="userSpaceOnUse" color-interpolation-filters="sRGB">
<feFlood flood-opacity="0" result="BackgroundImageFix"/>
<feColorMatrix in="SourceAlpha" type="matrix" values="0 0 0 0 0 0 0 0 0 0 0 0 0 0 0 0 0 0 127 0" result="hardAlpha"/>
<feOffset dy="4"/>
<feGaussianBlur stdDeviation="2"/>
<feComposite in2="hardAlpha" operator="out"/>
<feColorMatrix type="matrix" values="0 0 0 0 0 0 0 0 0 0 0 0 0 0 0 0 0 0 0.25 0"/>
<feBlend mode="normal" in2="BackgroundImageFix" result="effect1_dropShadow_233_150"/>
<feBlend mode="normal" in="BackgroundImageFix" in2="effect1_dropShadow_233_150" result="BackgroundImageFix"/>
<feBlend mode="normal" in="SourceGraphic" in2="BackgroundImageFix" result="shape"/>
</filter>
<linearGradient id="paint0_linear_233_150" x1="238" y1="0" x2="238" y2="434" gradientUnits="userSpaceOnUse">
<stop stop-color="#F0F3FA"/>
<stop offset="1" stop-color="#E8F0FE"/>
</linearGradient>
<clipPath id="clip0_233_150">
<rect x="4" width="468" height="434" rx="50" fill="white"/>
</clipPath>
</defs>
</svg>
