<svg width="52" height="51" viewBox="0 0 52 51" fill="none" xmlns="http://www.w3.org/2000/svg">
<path fill-rule="evenodd" clip-rule="evenodd" d="M4.15622 25.8129C14.9947 27.657 23.6554 35.9484 25.9286 46.6569C27.7832 35.868 36.1146 27.2457 46.873 24.9811C36.0346 23.137 27.3738 14.8456 25.1006 4.13713C23.2461 14.926 14.9147 23.5483 4.15622 25.8129ZM5.21971e-05 25.4327C13.6135 24.6807 24.3322 13.5877 24.5571 0.0180908L25.4834 5.40644e-05C26.2364 13.5506 37.3789 24.2179 51.0112 24.4393L51.0292 25.3613C37.4158 26.1133 26.697 37.2063 26.4721 50.7759L25.5458 50.7939C24.7928 37.2434 13.6504 26.5761 0.0180058 26.3547L5.21971e-05 25.4327Z" fill="black" fill-opacity="0.25"/>
<path fill-rule="evenodd" clip-rule="evenodd" d="M4.15622 25.8129C14.9947 27.657 23.6554 35.9484 25.9286 46.6569C27.7832 35.868 36.1146 27.2457 46.873 24.9811C36.0346 23.137 27.3738 14.8456 25.1006 4.13713C23.2461 14.926 14.9147 23.5483 4.15622 25.8129ZM5.21971e-05 25.4327C13.6135 24.6807 24.3322 13.5877 24.5571 0.0180908L25.4834 5.40644e-05C26.2364 13.5506 37.3789 24.2179 51.0112 24.4393L51.0292 25.3613C37.4158 26.1133 26.697 37.2063 26.4721 50.7759L25.5458 50.7939C24.7928 37.2434 13.6504 26.5761 0.0180058 26.3547L5.21971e-05 25.4327Z" fill="black" fill-opacity="0.25"/>
<path fill-rule="evenodd" clip-rule="evenodd" d="M28.8754 43.0942C29.7731 38.5623 30.2681 32.2721 30.1325 25.307C29.9968 18.3419 29.2573 12.0757 28.1838 7.5822C27.6453 5.32795 27.0342 3.56936 26.4012 2.39984C26.084 1.81386 25.7854 1.42134 25.5255 1.18716C25.2701 0.957023 25.1118 0.930122 25.0382 0.931556C24.9646 0.932989 24.8075 0.966032 24.5612 1.20594C24.3106 1.45005 24.0276 1.8539 23.7334 2.45179C23.1464 3.64506 22.6042 5.42611 22.1539 7.69962C21.2562 12.2315 20.7612 18.5217 20.8968 25.4869C21.0324 32.452 21.7719 38.7181 22.8454 43.2117C23.3839 45.4659 23.995 47.2245 24.628 48.394C24.9452 48.98 25.2438 49.3725 25.5037 49.6067C25.7591 49.8368 25.9174 49.8637 25.991 49.8623C26.0646 49.8609 26.2218 49.8278 26.468 49.5879C26.7186 49.3438 27.0017 48.94 27.2958 48.3421C27.8828 47.1488 28.425 45.3678 28.8754 43.0942ZM26.009 50.7849C29.0712 50.7253 31.3324 39.3104 31.0593 25.289C30.7863 11.2676 28.0825 -0.0506697 25.0203 0.0089598C21.958 0.0685893 19.6969 11.4835 19.9699 25.5049C20.2429 39.5263 22.9467 50.8445 26.009 50.7849Z" fill="black" fill-opacity="0.25"/>
<path fill-rule="evenodd" clip-rule="evenodd" d="M28.8754 43.0942C29.7731 38.5623 30.2681 32.2721 30.1325 25.307C29.9968 18.3419 29.2573 12.0757 28.1838 7.5822C27.6453 5.32795 27.0342 3.56936 26.4012 2.39984C26.084 1.81386 25.7854 1.42134 25.5255 1.18716C25.2701 0.957023 25.1118 0.930122 25.0382 0.931556C24.9646 0.932989 24.8075 0.966032 24.5612 1.20594C24.3106 1.45005 24.0276 1.8539 23.7334 2.45179C23.1464 3.64506 22.6042 5.42611 22.1539 7.69962C21.2562 12.2315 20.7612 18.5217 20.8968 25.4869C21.0324 32.452 21.7719 38.7181 22.8454 43.2117C23.3839 45.4659 23.995 47.2245 24.628 48.394C24.9452 48.98 25.2438 49.3725 25.5037 49.6067C25.7591 49.8368 25.9174 49.8637 25.991 49.8623C26.0646 49.8609 26.2218 49.8278 26.468 49.5879C26.7186 49.3438 27.0017 48.94 27.2958 48.3421C27.8828 47.1488 28.425 45.3678 28.8754 43.0942ZM26.009 50.7849C29.0712 50.7253 31.3324 39.3104 31.0593 25.289C30.7863 11.2676 28.0825 -0.0506697 25.0203 0.0089598C21.958 0.0685893 19.6969 11.4835 19.9699 25.5049C20.2429 39.5263 22.9467 50.8445 26.009 50.7849Z" fill="black" fill-opacity="0.25"/>
<path fill-rule="evenodd" clip-rule="evenodd" d="M7.73477 28.7454C12.2875 29.6381 18.6067 30.1297 25.6042 29.9935C32.6016 29.8572 38.8969 29.12 43.4114 28.0507C45.6762 27.5142 47.443 26.9056 48.6181 26.2753C49.2068 25.9595 49.6012 25.6622 49.8365 25.4035C50.0678 25.1492 50.0948 24.9916 50.0934 24.9183C50.092 24.8451 50.0588 24.6887 49.8178 24.4436C49.5726 24.1942 49.167 23.9125 48.5664 23.6198C47.3677 23.0357 45.5785 22.4964 43.2945 22.0485C38.7418 21.1558 32.4226 20.6642 25.4251 20.8004C18.4277 20.9367 12.1324 21.6739 7.6179 22.7432C5.35311 23.2797 3.58626 23.8883 2.41122 24.5186C1.82246 24.8344 1.42807 25.1317 1.19276 25.3904C0.961512 25.6447 0.934459 25.8023 0.935885 25.8756C0.937311 25.9488 0.970479 26.1052 1.21145 26.3503C1.45665 26.5997 1.86232 26.8814 2.46292 27.1741C3.66162 27.7581 5.45082 28.2975 7.73477 28.7454ZM0.0090135 25.8936C0.0683678 28.9417 11.5357 31.1904 25.6221 30.9161C39.7085 30.6418 51.0796 27.9484 51.0203 24.9003C50.9609 21.8522 39.4936 19.6035 25.4072 19.8778C11.3208 20.1521 -0.0503407 22.8455 0.0090135 25.8936Z" fill="black" fill-opacity="0.25"/>
<path fill-rule="evenodd" clip-rule="evenodd" d="M7.73477 28.7454C12.2875 29.6381 18.6067 30.1297 25.6042 29.9935C32.6016 29.8572 38.8969 29.12 43.4114 28.0507C45.6762 27.5142 47.443 26.9056 48.6181 26.2753C49.2068 25.9595 49.6012 25.6622 49.8365 25.4035C50.0678 25.1492 50.0948 24.9916 50.0934 24.9183C50.092 24.8451 50.0588 24.6887 49.8178 24.4436C49.5726 24.1942 49.167 23.9125 48.5664 23.6198C47.3677 23.0357 45.5785 22.4964 43.2945 22.0485C38.7418 21.1558 32.4226 20.6642 25.4251 20.8004C18.4277 20.9367 12.1324 21.6739 7.6179 22.7432C5.35311 23.2797 3.58626 23.8883 2.41122 24.5186C1.82246 24.8344 1.42807 25.1317 1.19276 25.3904C0.961512 25.6447 0.934459 25.8023 0.935885 25.8756C0.937311 25.9488 0.970479 26.1052 1.21145 26.3503C1.45665 26.5997 1.86232 26.8814 2.46292 27.1741C3.66162 27.7581 5.45082 28.2975 7.73477 28.7454ZM0.0090135 25.8936C0.0683678 28.9417 11.5357 31.1904 25.6221 30.9161C39.7085 30.6418 51.0796 27.9484 51.0203 24.9003C50.9609 21.8522 39.4936 19.6035 25.4072 19.8778C11.3208 20.1521 -0.0503407 22.8455 0.0090135 25.8936Z" fill="black" fill-opacity="0.25"/>
</svg>
