<svg width="30" height="30" viewBox="0 0 30 30" fill="none" xmlns="http://www.w3.org/2000/svg">
<path d="M8.89583 28.0182C7.12153 27.2526 5.57812 26.2135 4.26562 24.901C2.95312 23.5885 1.91406 22.0451 1.14844 20.2708C0.382812 18.4965 0 16.6007 0 14.5833C0 12.566 0.382812 10.6701 1.14844 8.89583C1.91406 7.12153 2.95312 5.57812 4.26562 4.26562C5.57812 2.95312 7.12153 1.91406 8.89583 1.14844C10.6701 0.382812 12.566 0 14.5833 0C16.6007 0 18.4965 0.382812 20.2708 1.14844C22.0451 1.91406 23.5885 2.95312 24.901 4.26562C26.2135 5.57812 27.2526 7.12153 28.0182 8.89583C28.7839 10.6701 29.1667 12.566 29.1667 14.5833C29.1667 16.6007 28.7839 18.4965 28.0182 20.2708C27.2526 22.0451 26.2135 23.5885 24.901 24.901C23.5885 26.2135 22.0451 27.2526 20.2708 28.0182C18.4965 28.7839 16.6007 29.1667 14.5833 29.1667C12.566 29.1667 10.6701 28.7839 8.89583 28.0182ZM22.8594 22.8594C25.1198 20.599 26.25 17.8403 26.25 14.5833C26.25 11.3264 25.1198 8.56771 22.8594 6.30729C20.599 4.04688 17.8403 2.91667 14.5833 2.91667C11.3264 2.91667 8.56771 4.04688 6.30729 6.30729C4.04688 8.56771 2.91667 11.3264 2.91667 14.5833C2.91667 17.8403 4.04688 20.599 6.30729 22.8594C8.56771 25.1198 11.3264 26.25 14.5833 26.25C17.8403 26.25 20.599 25.1198 22.8594 22.8594ZM8.38542 20.7812C6.68403 19.0799 5.83333 17.0139 5.83333 14.5833C5.83333 12.1528 6.68403 10.0868 8.38542 8.38542C10.0868 6.68403 12.1528 5.83333 14.5833 5.83333C17.0139 5.83333 19.0799 6.68403 20.7812 8.38542C22.4826 10.0868 23.3333 12.1528 23.3333 14.5833C23.3333 17.0139 22.4826 19.0799 20.7812 20.7812C19.0799 22.4826 17.0139 23.3333 14.5833 23.3333C12.1528 23.3333 10.0868 22.4826 8.38542 20.7812ZM18.7031 18.7031C19.8455 17.5608 20.4167 16.1875 20.4167 14.5833C20.4167 12.9792 19.8455 11.6059 18.7031 10.4635C17.5608 9.32118 16.1875 8.75 14.5833 8.75C12.9792 8.75 11.6059 9.32118 10.4635 10.4635C9.32118 11.6059 8.75 12.9792 8.75 14.5833C8.75 16.1875 9.32118 17.5608 10.4635 18.7031C11.6059 19.8455 12.9792 20.4167 14.5833 20.4167C16.1875 20.4167 17.5608 19.8455 18.7031 18.7031ZM12.5234 16.6432C11.9523 16.072 11.6667 15.3854 11.6667 14.5833C11.6667 13.7812 11.9523 13.0946 12.5234 12.5234C13.0946 11.9523 13.7812 11.6667 14.5833 11.6667C15.3854 11.6667 16.072 11.9523 16.6432 12.5234C17.2144 13.0946 17.5 13.7812 17.5 14.5833C17.5 15.3854 17.2144 16.072 16.6432 16.6432C16.072 17.2144 15.3854 17.5 14.5833 17.5C13.7812 17.5 13.0946 17.2144 12.5234 16.6432Z" fill="black" fill-opacity="0.5"/>
</svg>
